<svg xmlns="http://www.w3.org/2000/svg" width="65.149" height="60" viewBox="0 0 65.149 60"><defs><style>.a{fill:#195bfd;}</style></defs><path class="a" d="M2.4,8.238,5.835,4.805V20.664a1.438,1.438,0,0,0,1.373,1.442,1.393,1.393,0,0,0,1.373-1.442V4.805l3.432,3.432a1.327,1.327,0,0,0,1.922,0,1.409,1.409,0,0,0,0-1.991L8.1.412a1.409,1.409,0,0,0-1.991,0L.412,6.247A1.408,1.408,0,0,0,2.4,8.238Z" transform="translate(19.771 22.105) rotate(180)"/><path class="a" d="M50.389,36.525a13.611,13.611,0,0,0-2.4.206V25.4c0-3.913-6.384-5.9-12.7-5.9s-12.7,2.059-12.7,5.9v8.65A21.5,21.5,0,0,0,12.7,31.994C6.384,31.994,0,34.054,0,37.9V50.392c0,3.913,6.384,5.9,12.7,5.9,4.531,0,9.062-1.03,11.259-3.089,2.2,1.991,6.8,3.089,11.259,3.089.412,0,.755-.069,1.167-.069a14.8,14.8,0,1,0,14-19.7Zm-27.8,13.867c0,1.1-3.776,3.089-9.886,3.089s-9.886-1.991-9.886-3.089v-2.4a21.5,21.5,0,0,0,9.886,2.06,21.5,21.5,0,0,0,9.886-2.06Zm0-6.247c0,1.1-3.776,3.089-9.886,3.089s-9.886-1.991-9.886-3.089v-2.4A21.5,21.5,0,0,0,12.7,43.8a21.5,21.5,0,0,0,9.886-2.059ZM12.7,40.987C6.59,40.987,2.815,39,2.815,37.9S6.59,34.809,12.7,34.809,22.586,36.8,22.586,37.9,18.81,40.987,12.7,40.987ZM35.286,22.246c6.11,0,9.886,1.991,9.886,3.089s-3.776,3.089-9.886,3.089S25.4,26.434,25.4,25.335,29.108,22.246,35.286,22.246Zm-9.886,7a21.5,21.5,0,0,0,9.886,2.059,21.5,21.5,0,0,0,9.886-2.059v2.4c0,1.1-3.776,3.089-9.886,3.089S25.4,32.749,25.4,31.651Zm0,6.247a21.5,21.5,0,0,0,9.886,2.06,21.5,21.5,0,0,0,9.886-2.06v1.991A15.657,15.657,0,0,0,40.3,40.507a21.509,21.509,0,0,1-5.011.549c-6.11,0-9.886-1.991-9.886-3.089Zm0,6.247A21.5,21.5,0,0,0,35.286,43.8c.824,0,1.648-.069,2.4-.137a13.183,13.183,0,0,0-1.51,3.5c-.275,0-.549.069-.892.069-6.11,0-9.886-1.991-9.886-3.089ZM35.286,53.55c-6.11,0-9.886-1.991-9.886-3.089v-2.4a21.5,21.5,0,0,0,9.886,2.059h.343a7.461,7.461,0,0,0-.069,1.236,11.9,11.9,0,0,0,.206,2.2A1.122,1.122,0,0,0,35.286,53.55Zm15.1,9.748A12.014,12.014,0,1,1,62.4,51.285,12.027,12.027,0,0,1,50.389,63.3Z" transform="translate(0 -6.113)"/><path class="a" d="M70.088,57.743H72.01a1.3,1.3,0,0,1,1.3,1.3h2.815A4.1,4.1,0,0,0,72.422,55V52.8H69.607V55a4.094,4.094,0,0,0,.412,8.169h1.922a1.3,1.3,0,0,1,1.3,1.3,1.246,1.246,0,0,1-1.236,1.3H70.088a1.3,1.3,0,0,1-1.3-1.3H65.969a4.1,4.1,0,0,0,3.707,4.05v2.128H72.49V68.521a4.094,4.094,0,0,0-.412-8.169H70.156a1.305,1.305,0,0,1-.069-2.609Z" transform="translate(-20.66 -16.553)"/></svg>