<svg xmlns="http://www.w3.org/2000/svg" width="64.885" height="45.003" viewBox="0 0 64.885 45.003"><defs><style>.a{fill:#195bfd;stroke:#eff3ff;stroke-width:5.5px;}</style></defs><g transform="translate(2.753 2.75)"><path class="a" d="M66.632,11.467V31.357a4.678,4.678,0,0,1-9.357,0V22.69l-16.967,16.9a4.632,4.632,0,0,1-6.55,0l-6.425-6.36-.25-.249-11.6,11.66c-.187.187-.312.374-.5.561a4.724,4.724,0,0,1-6.612-.561,4.643,4.643,0,0,1,.5-6.547l14.97-14.965a4.67,4.67,0,0,1,6.612,0l6.425,6.422.187.249,13.1-13.157.561-.5h-8.67a4.677,4.677,0,1,1,0-9.353h19.9a4.476,4.476,0,0,1,1.809.374A4.684,4.684,0,0,1,66.632,11.467Z" transform="translate(-7.25 -6.79)"/></g></svg>