<svg xmlns="http://www.w3.org/2000/svg" xmlns:xlink="http://www.w3.org/1999/xlink" width="123.641" height="87.551" viewBox="0 0 123.641 87.551"><defs><style>.a{fill:#504f60;}.b{opacity:0.2;}.c{fill:#4481fe;}.d{fill:#514e7f;}.e{fill:#464353;}.f{fill:#a1616a;}.g,.r{opacity:0.1;}.h{fill:#33323d;}.i{fill:#8dd070;}.j{fill:#fbbebe;}.k,.o{opacity:0.05;}.l{fill:#3f3d56;}.m{fill:url(#a);}.n{fill:#2d293d;}.p{fill:#ffcdd3;}.q{fill:#575988;}</style><linearGradient id="a" x1="0.5" y1="1" x2="0.5" gradientUnits="objectBoundingBox"><stop offset="0" stop-color="gray" stop-opacity="0.251"/><stop offset="0.54" stop-color="gray" stop-opacity="0.122"/><stop offset="1" stop-color="gray" stop-opacity="0.102"/></linearGradient></defs><g transform="translate(0)"><path class="a" d="M788.636,649.981c0,.764-4.779,2.99-10.456,2.99s-10.1-2.226-10.1-2.99,4.6-.518,10.283-.518S788.636,649.217,788.636,649.981Z" transform="translate(-682.53 -580.678)"/><path class="b" d="M788.636,653.72c0,.764-4.779,2.99-10.456,2.99s-10.1-2.226-10.1-2.99" transform="translate(-682.53 -584.416)"/><path class="c" d="M502.156,531.813a6.8,6.8,0,0,0,2.76-.087c.139-.04.292-.129.278-.259a.3.3,0,0,0-.063-.129,7.819,7.819,0,0,1-.834-1.479.13.13,0,0,0-.052-.067.139.139,0,0,0-.089,0c-.407.1-.759.344-1.163.449a1.772,1.772,0,0,1-.634.044c-.183-.019-.434-.16-.6-.142C501.854,530.707,502.085,531.236,502.156,531.813Z" transform="translate(-453.219 -476.52)"/><path class="c" d="M623.732,514.645a4.7,4.7,0,0,0,1.6-1.4.23.23,0,0,0,.043-.12.238.238,0,0,0-.051-.116,4.963,4.963,0,0,0-1.3-1.3,3.7,3.7,0,0,0-.723.621c-.153.15-.575.388-.579.617,0,.129.161.28.236.388q.152.21.289.427A4.941,4.941,0,0,1,623.732,514.645Z" transform="translate(-557.37 -460.785)"/><path class="d" d="M472.26,539.759a.547.547,0,0,1-.111.375.554.554,0,0,1-.233.129c-1.288.43-2.779-.106-4.065.317-.264.087-.514.212-.78.3a4.522,4.522,0,0,1-.973.161c-.454.04-.912.066-1.367.078a3.523,3.523,0,0,1-1.031-.084,1.227,1.227,0,0,1-.791-.584.526.526,0,0,1-.039-.415.443.443,0,0,1,.085-.129,1.206,1.206,0,0,1,.3-.229l.474-.285a3.266,3.266,0,0,1,.719-.355c.188-.057.386-.082.577-.129a3.905,3.905,0,0,0,1.647-1.145l.645-.641a.642.642,0,0,1,.224-.167.663.663,0,0,1,.278-.025,3.9,3.9,0,0,1,1.758.549,2.32,2.32,0,0,0,.434.238,1.648,1.648,0,0,0,1.212-.14c.165-.083.129-.129.2-.277a.238.238,0,0,1,.386-.107.372.372,0,0,1,.092.163,4.283,4.283,0,0,1,.086,1.334.549.549,0,0,0,.028.207,1.159,1.159,0,0,0,.126.192.428.428,0,0,1,.026.049A1.234,1.234,0,0,1,472.26,539.759Z" transform="translate(-419.711 -482.734)"/><path class="e" d="M472.26,554.619a.547.547,0,0,1-.111.375.555.555,0,0,1-.233.13c-1.288.43-2.779-.106-4.065.317-.264.087-.514.212-.78.3a4.53,4.53,0,0,1-.973.16c-.454.04-.912.066-1.367.078a3.525,3.525,0,0,1-1.031-.084,1.227,1.227,0,0,1-.791-.584.526.526,0,0,1-.039-.415.442.442,0,0,1,.085-.129c.075.146.129.34.177.41a.9.9,0,0,0,.6.405,1.6,1.6,0,0,0,.556-.066,29.822,29.822,0,0,0,3.53-.681,8.531,8.531,0,0,1,1.156-.414,9.742,9.742,0,0,1,1.251-.094c.659-.049,1.3-.234,1.945-.331a1.234,1.234,0,0,1,.088.629Z" transform="translate(-419.711 -497.593)"/><path class="d" d="M606.019,519.841a2.147,2.147,0,0,1-.712,1.18,7.96,7.96,0,0,0-1,1.015,8.059,8.059,0,0,1-.917,1.465,2.522,2.522,0,0,1-.556.369,4.019,4.019,0,0,1-.716.307,5.725,5.725,0,0,1-2.022.1,1.938,1.938,0,0,1-.642-.115,1.98,1.98,0,0,1-.267-.153,1.235,1.235,0,0,1-.417-.388.365.365,0,0,1-.04-.282.659.659,0,0,1,.193-.274,4.481,4.481,0,0,1,.489-.41,2.877,2.877,0,0,0,.636-.518,1.619,1.619,0,0,0,.246-.518,4.306,4.306,0,0,0,.179-.99,2.924,2.924,0,0,1,.074-.663c.1-.342.375-.647.345-1a.233.233,0,0,1,.014-.151.23.23,0,0,1,.128-.074,2.41,2.41,0,0,1,.664-.144.8.8,0,0,1,.617.225c.095.106.157.259.3.3a.5.5,0,0,0,.211.008,1.863,1.863,0,0,0,.973-.278,1.1,1.1,0,0,0,.4-.824c0-.118-.057-.241.139-.259.147-.018.264.129.339.22a3.009,3.009,0,0,1,.65,1.1.372.372,0,0,1,.124-.022.551.551,0,0,1,.443.211A.775.775,0,0,1,606.019,519.841Z" transform="translate(-536.707 -466.06)"/><path class="e" d="M606.344,528.469a2.147,2.147,0,0,1-.712,1.18,7.952,7.952,0,0,0-1,1.015,8.061,8.061,0,0,1-.917,1.465,2.52,2.52,0,0,1-.556.369,4.017,4.017,0,0,1-.716.307,5.723,5.723,0,0,1-2.022.1,1.411,1.411,0,0,1-.909-.268,1.233,1.233,0,0,1-.417-.388,1.076,1.076,0,0,1,.417-.093c.3.016.52.28.807.361.41.115.818-.154,1.234-.246.271-.06.556-.044.824-.129a2.071,2.071,0,0,0,.61-.344,3.02,3.02,0,0,0,.652-.585,3.667,3.667,0,0,0,.382-.711,9.943,9.943,0,0,1,.773-1.377.98.98,0,0,1,.157-.192,2.179,2.179,0,0,1,.213-.144,1.48,1.48,0,0,0,.491-.833,1.4,1.4,0,0,1,.11-.278.551.551,0,0,1,.443.211A.776.776,0,0,1,606.344,528.469Z" transform="translate(-537.033 -474.689)"/><path class="f" d="M438.182,200.488a2.809,2.809,0,0,1,.834.906,17.814,17.814,0,0,1,1.251,3.506c.365-.343,1.807-.4,2.176-.742.154-.144.987-.861,1.112-1.028s1.053-.518,1.155-.694c.379-.633-2.69-3.031-2.3-3.656a.155.155,0,0,0,.032-.1.159.159,0,0,0-.051-.076,4.635,4.635,0,0,0-.888-.566,1.339,1.339,0,0,1-.677-.751,2.939,2.939,0,0,0-.785.494q-.845.674-1.661,1.376c-.213.184-.624.428-.723.691C437.542,200.133,437.979,200.334,438.182,200.488Z" transform="translate(-398.01 -187.058)"/><path class="d" d="M453.337,214.13a8.948,8.948,0,0,0-1.315,1,2.419,2.419,0,0,0-.834,1.248c-.039.193-.033.388-.065.584-.139.848-.926,1.469-1.273,2.262a3.713,3.713,0,0,0-.221.757,8.357,8.357,0,0,0-.16,1.486c-.008.483.5.815.686,1.266a7.285,7.285,0,0,1,.331,1.376,15.479,15.479,0,0,0,.834,2.55c.685,1.763,2.906,6.635,3.591,8.4,2.1-.491,7.689-1.618,9.548-2.652.62-.344-4.3-4.228-3.638-4.5a.247.247,0,0,0,.18-.119.216.216,0,0,0,.006-.206c-.663-2.7-2.736-4.918-3.677-7.547a22.3,22.3,0,0,0-1.358-2.559,26.37,26.37,0,0,0-1.1-2.4,1.54,1.54,0,0,0-.352-.408,2.112,2.112,0,0,0-.388-.219C453.858,214.329,453.6,214.256,453.337,214.13Z" transform="translate(-408.195 -201.719)"/><ellipse class="f" cx="3.287" cy="3.061" rx="3.287" ry="3.061" transform="translate(36.997 7.002)"/><path class="e" d="M466.4,205.261a1.165,1.165,0,0,1,1.235-.166c.222.107.417.325.367.553l1.63.023a3.507,3.507,0,0,1,.773.066,1.136,1.136,0,0,1,.645.377c.02.025.042.054.075.058a.126.126,0,0,0,.075-.023,1.506,1.506,0,0,1,.812-.129A4.547,4.547,0,0,1,474.4,207a.73.73,0,0,1,.278.322c.057.172-.011.388.139.511a17.123,17.123,0,0,0,.875,4.141,1.862,1.862,0,0,0,.493.66,2.658,2.658,0,0,1,.527.733c.3.72-.113,1.566.177,2.288a3.893,3.893,0,0,0,.556.822,2.051,2.051,0,0,1,.475,1.061c.013.173-.011.348,0,.518a2.946,2.946,0,0,0,.139.687q.178.626.372,1.251a2.815,2.815,0,0,0,1.134,1.758,9.918,9.918,0,0,1-4.7-.017,2.512,2.512,0,0,1-.586-.273,3.124,3.124,0,0,1-1.03-1.545,6.905,6.905,0,0,1-.574-1.994,2.142,2.142,0,0,0-.1-.647,1.927,1.927,0,0,0-.923-.81,4.4,4.4,0,0,1-1.112-.805,1.542,1.542,0,0,1-.45-1.209c.028-.214.118-.419.126-.634a.493.493,0,0,0-.316-.518c-1.138-.321-1.681-1.576-1.934-2.658a7.966,7.966,0,0,1-.146-1.7l-.015-1.1a1.416,1.416,0,0,1-.511-1.047,1.161,1.161,0,0,0-.007-.347.955.955,0,0,0-.261-.369,3.309,3.309,0,0,1-.624-.814Z" transform="translate(-422.773 -193.761)"/><path class="e" d="M439.792,228.01a7.9,7.9,0,0,1-.036,1.028c-.032.129-.088.259-.128.379a2.086,2.086,0,0,0,.151,1.44,7.9,7.9,0,0,0,.791,1.275,2.03,2.03,0,0,1,.253.441,2.141,2.141,0,0,1,.1.5,14.663,14.663,0,0,0,.386,2.034,49,49,0,0,0,2.335,6,.527.527,0,0,0,.317.2.613.613,0,0,0,.27-.052l.834-.3a.557.557,0,0,0,.193-.1.444.444,0,0,0,.12-.305,50.124,50.124,0,0,0-1.937-6.22,45.435,45.435,0,0,1-2.03-5.4,3.743,3.743,0,0,0-.6-1.728c-.168-.171-.111-.1-.313-.009a2.351,2.351,0,0,0-.295.144A.887.887,0,0,0,439.792,228.01Z" transform="translate(-399.666 -213.01)"/><path class="e" d="M556.62,320.79" transform="translate(-500.456 -294.575)"/><path class="c" d="M458.2,224.907c.224,1.1.454,2.2.684,3.3l3.263-.8a2.027,2.027,0,0,0-.278-.906c-.3-.695-.3-1.469-.545-2.183-.182-.544-.5-1.043-.67-1.591-.1-.318-.149-.647-.246-.969a6.749,6.749,0,0,0-.384-.925,5.679,5.679,0,0,0-.711-1.228,2.093,2.093,0,0,0-1.1.664,1.361,1.361,0,0,0-.2.647c-.057.682.208,1.368.121,2.046A5.611,5.611,0,0,0,458.2,224.907Z" transform="translate(-415.542 -206.489)"/><path class="e" d="M476.976,329.548a3.4,3.4,0,0,1-.3,1.968,14.349,14.349,0,0,0-.664,2.964,2.414,2.414,0,0,1-.164.749c-.1.216-.278.4-.4.6a2.847,2.847,0,0,0-.249,1.82c.047.408.118.814.206,1.215a2.872,2.872,0,0,1,.085,1.482c.258-.053.434.259.417.5s-.1.518.025.729c.32.109.322.518.313.835a6.564,6.564,0,0,0,.222,1.631q.725,3.249,1.54,6.479a5.74,5.74,0,0,0,3.666.223.538.538,0,0,0,.42-.769l-.531-1.8a3.094,3.094,0,0,1-.19-1.33c.051-.333.207-.691.032-.985-.06-.1-.154-.18-.224-.276-.278-.379-.132-.887-.11-1.346a1,1,0,0,0-.022-.308,1.482,1.482,0,0,0-.158-.338,4.874,4.874,0,0,1-.611-2.57.6.6,0,0,0-.049-.335,1.074,1.074,0,0,1-.09-.137.352.352,0,0,1,.029-.247,2.361,2.361,0,0,1-.428-.388.555.555,0,0,0,.279-.413.536.536,0,0,0-.176-.459.3.3,0,0,0,.24-.208.279.279,0,0,0-.091-.293c-.068-.044-.158-.063-.207-.129-.075-.1-.014-.229.047-.331l.324-.545c.242-.405.3-.906.556-1.294a9.371,9.371,0,0,0,.856-1.82l.935-2.4.63.509a1.9,1.9,0,0,1,.517.549,2.233,2.233,0,0,1,.168.657c.231,1.3,1.112,2.436,1.438,3.721a2.337,2.337,0,0,0,.3.831,1.809,1.809,0,0,1,.17.238,1.184,1.184,0,0,1,.071.395,1.823,1.823,0,0,0,.834,1.32c.31.2.695.334.863.647a1.169,1.169,0,0,0,.139.276c.15.168.474.188.538.4.036.118-.031.259.04.362a.367.367,0,0,0,.154.107l.9.421c1.012.471,1.529,1.553,2.275,2.341a5.1,5.1,0,0,1,.681.839c.322.537.471,1.211,1.016,1.553a1.534,1.534,0,0,1,.395.273c.171.21.108.5.124.767s.232.579.5.5a1.719,1.719,0,0,0,0,.977,5.5,5.5,0,0,0,3.2-1.209,1.165,1.165,0,0,0,.521-.815.276.276,0,0,0-.039-.162.493.493,0,0,0-.2-.144c-.846-.427-1.1-1.417-1.529-2.221a19.17,19.17,0,0,0-1.39-1.979c-1.006-1.417-1.693-3.132-3.214-4.068a2.146,2.146,0,0,1-.892-.729c-.093-.19-.1-.408-.178-.6a.552.552,0,0,0-.475-.388,2.535,2.535,0,0,0,.108-.94,1.11,1.11,0,0,0-.05-.405,1.928,1.928,0,0,0-.224-.4,3.645,3.645,0,0,1-.573-2.071,3.166,3.166,0,0,0-.039-1.117c-.061-.18-.168-.344-.242-.518a3.034,3.034,0,0,1-.174-.973l-.083-1.244a5.723,5.723,0,0,0-.172-1.229c-.278-.966-.556-5.01-1.508-5.465s-2.588,2.657-3.659,2.718a5.075,5.075,0,0,0-1.39.25,6.829,6.829,0,0,0-1.893,1.165L478.2,328.7A7.251,7.251,0,0,1,476.976,329.548Z" transform="translate(-430.319 -296.48)"/><path class="e" d="M414.971,163.866a2.548,2.548,0,0,1,1.912-.868,4.716,4.716,0,0,1,2.114.494,2.724,2.724,0,0,0,.617.236,4.2,4.2,0,0,1,1.048.129,1.129,1.129,0,0,1,.461,1.165,2,2,0,0,0,.125,1.294,2.986,2.986,0,0,1,.24.338,1.045,1.045,0,0,1-.019.72,4.723,4.723,0,0,1-.4-.475.492.492,0,0,0-.575-.139c-.179.113-.176.317-.186.5s-.06.4-.246.463a.413.413,0,0,1-.417-.151c-.318-.362-.19-.941-.506-1.306-.179-.207-.478-.308-.643-.525-.131-.171-.164-.388-.278-.572s-.379-.318-.556-.192a.705.705,0,0,0-.149.185.891.891,0,0,1-1.014.285,1.764,1.764,0,0,0-.439-.177.553.553,0,0,0-.5.259.955.955,0,0,0-.139.541,1.17,1.17,0,0,1-.108.742.8.8,0,0,1-.222.2.734.734,0,0,1-.77.074.516.516,0,0,1-.172-.5,3.85,3.85,0,0,1,.164-.531c.122-.4-.038-.853.1-1.231A3.858,3.858,0,0,1,414.971,163.866Z" transform="translate(-377.771 -157.202)"/><path class="c" d="M432.756,203.17a.441.441,0,0,0,.031.281.466.466,0,0,0,.164.146,3.546,3.546,0,0,0,1.548.467.5.5,0,0,1,.214.052.334.334,0,0,1,.09.4.984.984,0,0,0-.1.427c.04.271.385.388.675.428a1.666,1.666,0,0,0,1.176-.214,1.689,1.689,0,0,0,.485-.677c.8-1.707,1.077-3.594,1.884-5.3a1.071,1.071,0,0,0,.121-.355.339.339,0,0,0-.15-.326c-.15-.087-.384-.038-.485-.173-.05-.069-.044-.162-.089-.234-.093-.154-.338-.129-.5-.219-.131-.065-.221-.2-.367-.224a.477.477,0,0,0-.379.153,4.5,4.5,0,0,0-.987,1.547,17.766,17.766,0,0,1-1.412,2.438,1.39,1.39,0,0,0-.442-.806c-.249-.047-.567.36-.7.511A3.148,3.148,0,0,0,432.756,203.17Z" transform="translate(-393.795 -187.376)"/><path class="g" d="M459.55,200.32a.684.684,0,0,0-.516.241,1.3,1.3,0,0,0-.215.647,5.39,5.39,0,0,1-.819,2.047" transform="translate(-415.541 -189.696)"/><path class="g" d="M464.848,204.31a.8.8,0,0,0-.674.377,2,2,0,0,0-.169.639,3.407,3.407,0,0,1-.674,1.345" transform="translate(-420.13 -193.169)"/><path class="h" d="M230.2,358.989v-1.607a4.636,4.636,0,0,0-4.792-4.461H157.252a4.636,4.636,0,0,0-4.792,4.461v2.964Z" transform="translate(-152.46 -322.546)"/><path class="i" d="M323.362,271.7s-.195,11.241,1.945,14.94,3.057,19.79,3.057,19.79,22.435,2.161,38.068-2.588,48.9-6.692,48.9-6.692l-5.606-35.188s-27.694-1.654-43.449,5.344S323.362,271.7,323.362,271.7Z" transform="translate(-299.608 -243.213)"/><path class="g" d="M323.362,271.7s-.195,11.241,1.945,14.94,3.057,19.79,3.057,19.79,22.435,2.161,38.068-2.588,48.9-6.692,48.9-6.692l-5.606-35.188s-27.694-1.654-43.449,5.344S323.362,271.7,323.362,271.7Z" transform="translate(-299.608 -243.213)"/><path class="i" d="M358.264,292.522s-.7,9.276,1.059,12.239,1.843,16.194,1.843,16.194,20.19.872,34.552-3.681,44.543-7.506,44.543-7.506l-3.43-28.777s-24.972-.239-39.547,6.17S358.264,292.522,358.264,292.522Z" transform="translate(-329.546 -259.926)"/><path class="g" d="M5.2.026c2.892.024,5.279,4.737,5.331,10.526S8.278,21.015,5.386,20.99.108,16.253.055,10.464,2.3,0,5.2.026Z" transform="translate(59.577 31.917) rotate(-7.1)"/><path class="b" d="M346.189,130.66S319.284,137,306.6,148.164s-39.4,16.448-39.4,16.448,3.519,10.754,6.773,13.663,9.427,17.964,9.427,17.964,22.064-4.356,35.376-13.348,44.34-20.349,44.34-20.349Z" transform="translate(-251.255 -129.051)"/><path class="i" d="M264.29,152.181s3.517,10.755,6.769,13.664,9.427,17.962,9.427,17.962,22.066-4.355,35.381-13.347,44.338-20.345,44.338-20.345L343.278,118.23s-26.9,6.342-39.591,17.5S264.29,152.181,264.29,152.181Z" transform="translate(-248.75 -118.23)"/><path class="g" d="M264.29,152.181s3.517,10.755,6.769,13.664,9.427,17.962,9.427,17.962,22.066-4.355,35.381-13.347,44.338-20.345,44.338-20.345L343.278,118.23s-26.9,6.342-39.591,17.5S264.29,152.181,264.29,152.181Z" transform="translate(-248.75 -118.23)"/><path class="i" d="M308,174.929s2.389,9.03,5.042,11.346,7.087,14.883,7.087,14.883,19.5-4.941,31.672-13.38,39.923-19.862,39.923-19.862L378.979,141.5s-23.845,6.907-35.606,17.173S308,174.929,308,174.929Z" transform="translate(-286.385 -138.488)"/><path class="g" d="M5.056.08c2.86.076,5.31,4.887,5.473,10.746S8.506,21.372,5.647,21.3.337,16.409.174,10.55,2.2,0,5.056.08Z" transform="translate(50.856 26.975) rotate(-24.97)"/><path class="g" d="M232.07,381.721v44.65a4.011,4.011,0,0,1-4.147,3.861H156.634a4.01,4.01,0,0,1-4.144-3.861V377.22a7.8,7.8,0,0,0,4.144.647h71.289A4.013,4.013,0,0,1,232.07,381.721Z" transform="translate(-152.486 -343.701)"/><path class="a" d="M232.07,386.1v44.65a4.012,4.012,0,0,1-4.147,3.861H156.634a4.01,4.01,0,0,1-4.144-3.861V381.6a7.823,7.823,0,0,0,4.144.647h71.289A4.012,4.012,0,0,1,232.07,386.1Z" transform="translate(-152.486 -347.514)"/><path class="g" d="M584.056,543.936v14.279H569.187a7.158,7.158,0,1,1,0-14.28Z" transform="translate(-504.675 -488.84)"/><path class="h" d="M585.516,541v14.282H570.647a7.158,7.158,0,1,1,0-14.28Z" transform="translate(-505.932 -486.285)"/><ellipse class="g" cx="2.989" cy="2.784" rx="2.989" ry="2.784" transform="translate(62.438 59.452)"/><ellipse class="c" cx="2.989" cy="2.784" rx="2.989" ry="2.784" transform="translate(62.641 59.074)"/><path class="j" d="M850.567,526.61c.118,1.192-.851,2.349-.568,3.516.061.25.177.485.218.738a2.721,2.721,0,0,1-.75,1.93l-3.641,4.975a3.147,3.147,0,0,1-.52.6c-.695.577-1.74.518-2.654.69a4.708,4.708,0,0,0-1.779.732.1.1,0,0,0-.017.145,1.574,1.574,0,0,0,1.323.579c.1.118,0,.29-.139.374-.2.129-.464.16-.5.469a.48.48,0,0,0,.067.311,1.038,1.038,0,0,0,.636.413,3.95,3.95,0,0,0,3.566-1.13c.943-.858,1.62-1.941,2.546-2.815.513-.483,1.1-.9,1.623-1.365a17.524,17.524,0,0,0,2.663-3.208,3.488,3.488,0,0,0,.577-1.092c.1-.4.053-.8.166-1.183a4.317,4.317,0,0,1,.873-1.329,4.2,4.2,0,0,0,.992-2.861,2.761,2.761,0,0,0-1.8-2.375,1.709,1.709,0,0,0-1.008-.057,2.372,2.372,0,0,0-1.026.76l-.695.744a1.737,1.737,0,0,0-.4.569.567.567,0,0,0,.139.633" transform="translate(-745.173 -472.017)"/><path class="k" d="M850.567,526.61c.118,1.192-.851,2.349-.568,3.516.061.25.177.485.218.738a2.721,2.721,0,0,1-.75,1.93l-3.641,4.975a3.147,3.147,0,0,1-.52.6c-.695.577-1.74.518-2.654.69a4.708,4.708,0,0,0-1.779.732.1.1,0,0,0-.017.145,1.574,1.574,0,0,0,1.323.579c.1.118,0,.29-.139.374-.2.129-.464.16-.5.469a.48.48,0,0,0,.067.311,1.038,1.038,0,0,0,.636.413,3.95,3.95,0,0,0,3.566-1.13c.943-.858,1.62-1.941,2.546-2.815.513-.483,1.1-.9,1.623-1.365a17.524,17.524,0,0,0,2.663-3.208,3.488,3.488,0,0,0,.577-1.092c.1-.4.053-.8.166-1.183a4.317,4.317,0,0,1,.873-1.329,4.2,4.2,0,0,0,.992-2.861,2.761,2.761,0,0,0-1.8-2.375,1.709,1.709,0,0,0-1.008-.057,2.372,2.372,0,0,0-1.026.76l-.695.744a1.737,1.737,0,0,0-.4.569.567.567,0,0,0,.139.633" transform="translate(-745.173 -472.017)"/><path class="l" d="M911.014,767.877a4.49,4.49,0,0,1-2.71.374c-.149-.017-.325-.027-.417.08-.139.155.025.388.195.509a4.173,4.173,0,0,0,1.861.713,13.13,13.13,0,0,0,1.82.113,33.028,33.028,0,0,0,4.976-.169.743.743,0,0,0,.278-.075.473.473,0,0,0,.206-.291,1.113,1.113,0,0,0-.432-1.1,3.72,3.72,0,0,0-1.16-.58l-1.445-.524a3.891,3.891,0,0,0-1.251-.423C912.242,766.547,911.587,767.564,911.014,767.877Z" transform="translate(-802.864 -682.599)"/><path class="k" d="M911.014,767.877a4.49,4.49,0,0,1-2.71.374c-.149-.017-.325-.027-.417.08-.139.155.025.388.195.509a4.173,4.173,0,0,0,1.861.713,13.13,13.13,0,0,0,1.82.113,33.028,33.028,0,0,0,4.976-.169.743.743,0,0,0,.278-.075.473.473,0,0,0,.206-.291,1.113,1.113,0,0,0-.432-1.1,3.72,3.72,0,0,0-1.16-.58l-1.445-.524a3.891,3.891,0,0,0-1.251-.423C912.242,766.547,911.587,767.564,911.014,767.877Z" transform="translate(-802.864 -682.599)"/><path class="e" d="M931.2,587.711a3.451,3.451,0,0,0-1.076,2.529,5.418,5.418,0,0,0,.6,1.4,9.337,9.337,0,0,1,.606,1.962c.225.976.452,1.954.589,2.946.157,1.119-.581,4.359-.649,5.486a1.107,1.107,0,0,1-.254.761c-.079.078-.185.14-.221.241a.387.387,0,0,0,.049.285,3.284,3.284,0,0,0,1.807,1.545,15.139,15.139,0,0,0,3.484.853.744.744,0,0,0,.328-.04.609.609,0,0,0,.253-.271c.6-1.077.024-4.905.032-6.12.008-1.013.266-2.02.218-3.032-.039-.813-.278-1.607-.357-2.418a13.317,13.317,0,0,1,.385-3.974c.2-1.007.4-2.014.659-3.008a5.533,5.533,0,0,1,.695-1.746c.278-.418.668-.767.992-1.165a5,5,0,0,0,1.112-3.849,11.472,11.472,0,0,0-2.267.562,7.142,7.142,0,0,0-2.021,1.21,16.121,16.121,0,0,0-1.273,1.466q-.888,1.008-1.754,2.031Q932.145,586.528,931.2,587.711Z" transform="translate(-822.035 -520.301)"/><path class="k" d="M931.2,587.4a3.453,3.453,0,0,0-1.076,2.529,5.408,5.408,0,0,0,.6,1.4,9.326,9.326,0,0,1,.606,1.961c.225.977.452,1.955.589,2.946.157,1.121-.581,4.359-.649,5.486a1.11,1.11,0,0,1-.254.762c-.079.076-.185.139-.221.239a.386.386,0,0,0,.049.285,3.323,3.323,0,0,0,1.807,1.553,14.315,14.315,0,0,0,3.484.607.741.741,0,0,0,.328-.04.6.6,0,0,0,.253-.269c.6-1.077.024-4.659.032-5.876.008-1.015.266-2.02.218-3.034-.039-.813-.278-1.607-.357-2.416a13.321,13.321,0,0,1,.385-3.976c.2-1.006.4-2.013.659-3.008a5.533,5.533,0,0,1,.695-1.746c.278-.418.668-.767.992-1.165a4.993,4.993,0,0,0,1.112-3.849,11.472,11.472,0,0,0-2.267.562,7.176,7.176,0,0,0-2.021,1.211,15.934,15.934,0,0,0-1.273,1.465q-.888,1.008-1.754,2.032Q932.145,586.22,931.2,587.4Z" transform="translate(-822.035 -520.039)"/><ellipse class="j" cx="3.373" cy="3.141" rx="3.373" ry="3.141" transform="translate(99.095 44.71)"/><path class="j" d="M891.757,482.908a4.378,4.378,0,0,0,2.8,1.82l-.254.861a7.958,7.958,0,0,1-2.158,4.066,1.788,1.788,0,0,0-.342-1.47,5.735,5.735,0,0,0-1.145-1.114l-1.941-1.566a.558.558,0,0,1-.139-.153.431.431,0,0,1,0-.344c.247-.717.953-1.165,1.529-1.649a5.043,5.043,0,0,0,.768-.833C891.262,482.01,891.5,482.527,891.757,482.908Z" transform="translate(-786.252 -435.189)"/><path class="e" d="M852.641,446.606l-.076-.59c.532.129,1.038-.292,1.378-.729s.656-.95,1.174-1.132a2.572,2.572,0,0,1,1.9.424,6.316,6.316,0,0,0,2.178.66,1.529,1.529,0,0,1,.36.054,1.158,1.158,0,0,1,.635,1,3.683,3.683,0,0,0,.235,1.227c.139.281.4.489.556.766.417.743.014,1.759.449,2.487l-1.081-.923c-.1-.084-.238-.172-.347-.1-.086.057-.093.18-.128.278a.586.586,0,0,1-.77.259,2.161,2.161,0,0,1-.695-.586,4.2,4.2,0,0,0-1.715-1.211,2.347,2.347,0,0,0-1.806.111c-.5.265-.874.884-1.493.906-.848.03-1.2-1.44-1.593-2.022a.681.681,0,0,0,.222-.89C852.079,446.576,852.628,446.515,852.641,446.606Z" transform="translate(-754.616 -401.913)"/><path class="f" d="M550.882,316.664a6.318,6.318,0,0,0-.749.733,1.4,1.4,0,0,0-.345.941.459.459,0,0,0,.1.276.261.261,0,0,0,.278.079.367.367,0,0,0,.139-.114,6.414,6.414,0,0,1,.467-.471.256.256,0,0,1,.22-.093.237.237,0,0,1,.094.058.593.593,0,0,1,.2.285.645.645,0,0,1-.215.551,1.41,1.41,0,0,0-.363.5.208.208,0,0,0,0,.16.254.254,0,0,0,.108.085,1.653,1.653,0,0,0,1.312.08c.278-.1.525-.285.812-.378a1.959,1.959,0,0,0,.359-.129.694.694,0,0,0,.318-.444,1.708,1.708,0,0,0,.021-.545,5.9,5.9,0,0,0-.478-2.049.26.26,0,0,0-.081-.109.271.271,0,0,0-.139-.035,3.54,3.54,0,0,0-1.283-.082.888.888,0,0,0-.3.251C551.284,316.281,550.882,316.577,550.882,316.664Z" transform="translate(-494.574 -290.334)"/><path class="e" d="M525.935,238.049c0-.316-.417-1.078.246-1.129,0-.338-.513-.547-.417-.906.031-.119.139-.216.152-.338.042-.346-.628-.533-.517-.865.042-.129.189-.2.221-.333.075-.3-.5-.432-.51-.739,0-.1.062-.2.057-.3,0-.129-.121-.228-.188-.34-.174-.289-.089-.735-.406-.884.21.017.278-.273.192-.45s-.263-.331-.264-.528a.745.745,0,0,0,0-.215c-.058-.189-.391-.2-.446-.388a1.55,1.55,0,0,1-.007-.212c-.022-.146-.183-.239-.335-.281a1.433,1.433,0,0,1-.448-.149c-.1-.069-.21-.182-.314-.129-.039.022-.058.063-.088.094-.125.136-.364.076-.521-.023a1.963,1.963,0,0,1-.793-1.334c-.1-.514-.1-1.044-.22-1.553a3.159,3.159,0,0,0-.15-.466c-.053-.129-.222-.333-.233-.463-.025-.3.636-.094.888-.065a4.218,4.218,0,0,1,.721.129q.377.133.738.3c1,.413,2.215.463,3.021,1.157a2.507,2.507,0,0,0,.834.63,4,4,0,0,1,.467.113c.382.167.442.639.65.981a1.894,1.894,0,0,1,.171.285,1.029,1.029,0,0,1,.056.362l.029.9a30.805,30.805,0,0,1-.078,4.5,3.444,3.444,0,0,0,.018,1.474c.042.129.1.251.139.382a2.175,2.175,0,0,1,.053.466l.022.581a.171.171,0,0,1-.031.129.211.211,0,0,1-.168.038c-.869-.072-1.747-.528-2.567-.252" transform="translate(-469.739 -212.012)"/><ellipse class="a" cx="10.278" cy="1.384" rx="10.278" ry="1.384" transform="translate(85.554 67.92)"/><path class="m" d="M707.633,237.708c-.181-.721-.293-1.354-.293-1.354a2.627,2.627,0,0,0-.336-1.373v-.2h0v-1.45a4.8,4.8,0,0,1,.393-.76,5.332,5.332,0,0,0,0-2.125,8.857,8.857,0,0,1-.787-3.848c.252-1.494-2.132-6.632-2.132-6.632a6.134,6.134,0,0,1,.224-1.468,1.053,1.053,0,0,0,.031-.308v-.026a10.834,10.834,0,0,0-.873-2.83l.113-3.518a9.655,9.655,0,0,0-.336-4.86c-.3-.972-.5-1.75-.623-2.35-.014-.067-.028-.129-.039-.2,1.791-.259,3.16-.466,3.16-.466s-1.039-4.05-1.741-4.759a8.978,8.978,0,0,1-1.263-2.937s-.365-2.859.225-3.695a5.253,5.253,0,0,0,.674-2.278s1.347-.906,1.516-1.316a6.334,6.334,0,0,0,.449-1.8c0-.48-.168-.906-.113-1.165s-.393-1.215-.168-1.671a1.152,1.152,0,0,0,.089-.439.051.051,0,0,0,0-.013h0a5.736,5.736,0,0,0-.118-1.188,3.713,3.713,0,0,0-1.334-.664l-.029-.109-.077-.285a1.5,1.5,0,0,0-.132-.072v-.1l-.012-.412.211-.924c.417-1.607-1.889-1.847-1.889-1.847a1.193,1.193,0,0,0-.653-.533c-.463-.151-.076,2.418.139,2.588a10.066,10.066,0,0,1,.909,1.325h0l.039.065a.93.93,0,0,0-.106.1l.088.558.014.085a2.287,2.287,0,0,0-.368.584,1.214,1.214,0,0,1,.338.906,2.716,2.716,0,0,0,.139,1.113c-.025-.027-.321-.325-.617-.252s-1.123.3-1.123.3-.617.1-.556.228-.417.683-.417.683l-1.659-1.465c-.017-.044-.035-.088-.049-.129a3.35,3.35,0,0,1-.139-.647,4,4,0,0,0,.531-.157,1.158,1.158,0,0,0,.459-.274,1.588,1.588,0,0,0,.268-.667,9.48,9.48,0,0,1,.616-1.279,3.9,3.9,0,0,0,.313-2.3,1.437,1.437,0,0,0-.254-.673c-.271-.347-.763-.488-1.12-.765s-.588-.7-1-.906a2.129,2.129,0,0,0-1.259-.1,7.111,7.111,0,0,0-2.353.8,1.285,1.285,0,0,1-.787.241,1.026,1.026,0,0,1-.567-.388.138.138,0,0,1,.007-.021.129.129,0,0,1-.018-.021,2.57,2.57,0,0,0-.258,1.157,1.324,1.324,0,0,0,.008.185v.118h0a.277.277,0,0,1-.013.082.59.59,0,0,1-.156.208,1.427,1.427,0,0,0-.139.172.2.2,0,0,1,.022-.063.879.879,0,0,0-.172.488.476.476,0,0,0,.125.349,1.789,1.789,0,0,0,.271.2,2.758,2.758,0,0,0-.05.518,2.957,2.957,0,0,0,1.565,2.551c.019.043.038.087.056.129a3.461,3.461,0,0,1,.3,1.682.731.731,0,0,1-.02.122c-.007.04-.042.043-.06.065h0s-2.742.026-3.387-.518-1.629,1.329-1.629,1.329-.983.177-1.18,0-1.347-.025-1.347-.025a2.589,2.589,0,0,0-1.713-.582,5.146,5.146,0,0,0-1.251-.647h0l-.031-.01h0a1.5,1.5,0,0,0-.618-.072,12.127,12.127,0,0,1-1.741-1.594c-.393-.559-2.265-2.623-2.273-2.632v-.1l-.021-.3a1.236,1.236,0,0,1-.168.013c-.01-.03-.024-.065-.038-.1a5.59,5.59,0,0,0-.4-.85s0-.379.118-.475a6.105,6.105,0,0,0-.049-1.487s-1.215-2.644-2.3-.67c0,0-2.057,1.277-.331,2.766,0,0,.695.311.786.556.064.159.3.606.454.906l.071.129-.02.016.025.248.011.1c-.325.172-.546.343-.492.471a2.679,2.679,0,0,1,.2.683s2.387,2.785,2.7,3.975c0,0,6.4,3.544,8.508,3.8l-.372,1.767a13.14,13.14,0,0,0-.083,1.443,20.111,20.111,0,0,1-.253,2.1,13.216,13.216,0,0,1-.674,2.886c-.309.355-.253,1.873-.253,1.873a12,12,0,0,1-.417,2.151,5.125,5.125,0,0,0-.085,2.152s-1.066,2.278,1.488.734c0,0,1.251-.072,2.7-.119v.129c0,.173,0,.361-.01.558-.02,1.3-.028,3.106.036,4.462.113,2.4.9,7.163.9,7.163v2.4a3.047,3.047,0,0,0-.075.683,4.218,4.218,0,0,0,.695,2.393l.2,1.594a5.89,5.89,0,0,1,.47,1.682.829.829,0,0,1-.02.151.959.959,0,0,0-.022.245,12.916,12.916,0,0,0,.442,2.459s.028,1.746.308,1.848c.24.087-.321,1.006-.488,1.27a.339.339,0,0,1-.01-.049l-.035.052a1.165,1.165,0,0,0-.088.443.62.62,0,0,0,.311.613c.534.3.82.557.367.657a5.01,5.01,0,0,0-.495.1c0-.019-.017-.04-.024-.058a.275.275,0,0,0-.185.305,1.225,1.225,0,0,0,.165.588,6.313,6.313,0,0,0,.76,1.294l.215-.022a.959.959,0,0,1-.125.216.879.879,0,0,1-.317.259,1.03,1.03,0,0,1-.385.123,1.116,1.116,0,0,0-.795.36.74.74,0,0,0,.1,1.2l2.008.647s3.455.418,3.271-.3-.295-1.354-.295-1.354a2.687,2.687,0,0,0-.278-1.28,1.657,1.657,0,0,0-.122-.189l.122-.012a5.613,5.613,0,0,1,.589-1.9c.078-.07.1-.129.078-.166.035-.087-.054-.137-.167-.167l-.025.063a1.758,1.758,0,0,0-.335-.035s-.113-.835.253-1.139a.306.306,0,0,0,.071-.248,1.247,1.247,0,0,0-.039-.34.174.174,0,0,1-.013.021,11.772,11.772,0,0,0-.806-1.963,2.251,2.251,0,0,1,.2-1.063,24.933,24.933,0,0,0-.029-4.126,11.641,11.641,0,0,0-.168-2.708,2.863,2.863,0,0,1,.308-1.874v-.067l-.032-.291a.067.067,0,0,0,0,.018c-.057-.489-.164-1.376-.243-1.785a31.585,31.585,0,0,1,.029-3.365l.5-1.191.9,2.051.955,2.733a2.255,2.255,0,0,1,.484,1.165v.085a1.393,1.393,0,0,0-.011.182,1.544,1.544,0,0,0,.291.975,4.033,4.033,0,0,0,.646,1.619,1.391,1.391,0,0,1,.393.962,15.934,15.934,0,0,0,.695,2.2,3.066,3.066,0,0,1,.2,1.272h0v.067s.067.67.064,1.232v.2a.055.055,0,0,0,0-.014,1.822,1.822,0,0,1-.058.456l-.008.026a.311.311,0,0,1,.01-.094,4.441,4.441,0,0,0-.139,1.165,2.86,2.86,0,0,0,.535,1.941c.759.81,1.235.709,1.235.709s-.364,1.012-.814,1.215a.212.212,0,0,0-.047.028.417.417,0,0,0-.011-.06.473.473,0,0,0-.139.378,2.6,2.6,0,0,0,.556,1.5.924.924,0,0,0,.379.207.61.61,0,0,1-.071.04,1.551,1.551,0,0,1-.154.069.858.858,0,0,1-.229.056,1.1,1.1,0,0,0-.795.36.739.739,0,0,0,.1,1.2l2.008.647S707.813,238.429,707.633,237.708Z" transform="translate(-602.959 -168.337)"/><path class="n" d="M796.563,639.609l-1.945-.647a.753.753,0,0,1-.094-1.2,1.068,1.068,0,0,1,.77-.36.967.967,0,0,0,.371-.123.87.87,0,0,0,.308-.259,1.271,1.271,0,0,0,.221-.7s2.134-.582,2.718,0a1.47,1.47,0,0,1,.259.353,2.786,2.786,0,0,1,.278,1.28s.108.632.285,1.354S796.563,639.609,796.563,639.609Z" transform="translate(-705.078 -569.042)"/><path class="n" d="M865,632.691l-1.945-.647a.751.751,0,0,1-.095-1.2,1.055,1.055,0,0,1,.769-.36.764.764,0,0,0,.222-.056,1.53,1.53,0,0,0,.15-.069,1.115,1.115,0,0,0,.529-.962s2.133-.582,2.718,0a1.443,1.443,0,0,1,.2.259,2.706,2.706,0,0,1,.325,1.374s.108.633.278,1.354S865,632.691,865,632.691Z" transform="translate(-764.007 -563.018)"/><path class="g" d="M809.5,636.307a1.473,1.473,0,0,1,.258.353h0l-3.2.346a1.272,1.272,0,0,0,.221-.7S808.914,635.724,809.5,636.307Z" transform="translate(-715.663 -569.031)"/><path class="g" d="M875.3,629.678v.558c-.5.762-2.9.6-3.6.214a1.535,1.535,0,0,0,.15-.069,1.115,1.115,0,0,0,.53-.962s2.133-.582,2.718,0A1.448,1.448,0,0,1,875.3,629.678Z" transform="translate(-771.751 -563.035)"/><path class="e" d="M799.7,415.54a4.935,4.935,0,0,0-.379.76v2c-.545.835-3.37.557-3.752.1s-.781-1.641-.352-1.847.788-1.215.788-1.215-.463.1-1.2-.709-.516-2.607-.379-3.036a8.362,8.362,0,0,0,0-1.873,3.52,3.52,0,0,0-.189-1.342,15.841,15.841,0,0,1-.68-2.2,1.424,1.424,0,0,0-.381-.962,4.136,4.136,0,0,1-.625-1.62,1.569,1.569,0,0,1-.271-1.088,2.12,2.12,0,0,0-.463-1.316l-.924-2.735-.87-2.05-.489,1.189a31.7,31.7,0,0,0-.026,3.365c.112.581.278,2.126.278,2.126a2.938,2.938,0,0,0-.3,1.873,11.916,11.916,0,0,1,.156,2.71,25.725,25.725,0,0,1,.026,4.125,2.316,2.316,0,0,0-.19,1.064s1.112,2.226.761,2.53-.245,1.139-.245,1.139.76,0,.435.3a5.774,5.774,0,0,0-.571,1.9l-3.287.359a6.26,6.26,0,0,1-.735-1.294c-.435-.941.081-.835.518-.937s.161-.353-.356-.657-.217-.987-.217-.987.788-1.24.516-1.341-.3-1.848-.3-1.848a10.533,10.533,0,0,1-.407-2.632,4.748,4.748,0,0,0-.435-1.9l-.19-1.594a4.135,4.135,0,0,1-.6-3.013v-2.459s-.761-4.758-.87-7.162c-.069-1.54-.05-3.642-.028-4.953.014-.735.028-1.223.028-1.223l11.74-1.139a8.54,8.54,0,0,0,.213,1.624c.121.6.309,1.378.6,2.35a9.969,9.969,0,0,1,.326,4.858l-.11,3.519s1.033,2.353.816,3.163a6.322,6.322,0,0,0-.22,1.47s2.31,5.138,2.065,6.632a9.088,9.088,0,0,0,.76,3.848A5.424,5.424,0,0,1,799.7,415.54Z" transform="translate(-695.766 -351.301)"/><path class="k" d="M852.05,509.714l3.574-.444S853.6,511.194,852.05,509.714Z" transform="translate(-754.831 -458.661)"/><path class="g" d="M870.012,484.14s.122,1.178-.652,1.62C869.36,485.76,870.745,485.558,870.012,484.14Z" transform="translate(-769.736 -436.784)"/><path class="g" d="M846.293,455.2s-2.988,2.291-4.074,2.1S846.293,455.2,846.293,455.2Z" transform="translate(-746.237 -411.589)"/><path class="g" d="M805.679,521s-2.269.48-2.337,1.329S805.679,521,805.679,521Z" transform="translate(-712.89 -468.873)"/><path class="k" d="M808.528,602.56s-3.206.557-2.3.936a16.439,16.439,0,0,0,2.405.683S809.673,604.23,808.528,602.56Z" transform="translate(-715.24 -539.878)"/><g class="o" transform="translate(87.685 35.709)"><path d="M800.025,611.542a.587.587,0,0,1-.293-.432l-.033.053s-.3.683.218.986c.058.035.115.07.167.1.1-.017.2-.03.3-.053C800.818,612.1,800.542,611.846,800.025,611.542Z" transform="translate(-797.366 -583.03)"/><path d="M831.37,609.4c.089-.075.086-.269.032-.518a1.374,1.374,0,0,0-.182.733A.627.627,0,0,1,831.37,609.4Z" transform="translate(-824.582 -581.088)"/><path d="M827.407,515.59a3.247,3.247,0,0,0-.217.931,3.589,3.589,0,0,1,.249-.639Z" transform="translate(-821.112 -499.872)"/><path d="M881.22,503.467a1.109,1.109,0,0,0,.029-.277c-.04.189-.068.364-.089.518C881.178,503.629,881.2,503.554,881.22,503.467Z" transform="translate(-867.582 -489.077)"/><path d="M827.727,581.333a1.52,1.52,0,0,0,.081-.563,1.8,1.8,0,0,0-.157.711A.66.66,0,0,1,827.727,581.333Z" transform="translate(-821.508 -556.616)"/><path d="M804.06,622a9.47,9.47,0,0,0-.374,1.553l-3.286.353a6.254,6.254,0,0,1-.735-1.294,2.283,2.283,0,0,1-.093-.223c-.2.084-.278.274-.017.83a6.354,6.354,0,0,0,.737,1.294l3.287-.355a5.768,5.768,0,0,1,.57-1.9C804.314,622.114,804.211,622.038,804.06,622Z" transform="translate(-797.174 -592.51)"/><path d="M786,419.085s.026,1.746.3,1.847h0c.139-.289.229-.563.107-.608-.278-.1-.3-1.848-.3-1.848a10.528,10.528,0,0,1-.407-2.632,4.748,4.748,0,0,0-.435-1.9l-.19-1.594a4.135,4.135,0,0,1-.6-3.013v-2.459s-.762-4.758-.87-7.162c-.069-1.54-.05-3.642-.028-4.953,0-.237.008-.447.012-.624l-.093.009s-.015.487-.028,1.223c-.022,1.311-.043,3.413.028,4.952.108,2.4.869,7.163.869,7.163v2.459a4.138,4.138,0,0,0,.6,3.012l.189,1.594a4.775,4.775,0,0,1,.435,1.9A10.555,10.555,0,0,0,786,419.085Z" transform="translate(-783.448 -394.14)"/><path d="M867.4,623.372a2.851,2.851,0,0,1-.521-1.2c-.335.282.05,1.377.417,1.812.379.456,3.206.734,3.752-.1V623.4C870.3,624.075,867.754,623.8,867.4,623.372Z" transform="translate(-855.171 -592.658)"/><path d="M898.781,609.247a4.955,4.955,0,0,0-.381.76v.359a5.186,5.186,0,0,1,.278-.507,1.459,1.459,0,0,0,.12-.628S898.785,609.242,898.781,609.247Z" transform="translate(-882.426 -581.393)"/><path d="M862.975,587.29a4.805,4.805,0,0,0,.268-.6s-.463.1-1.2-.709a3.389,3.389,0,0,1-.488-2.429c-.139.431-.354,2.227.379,3.038A1.946,1.946,0,0,0,862.975,587.29Z" transform="translate(-850.583 -559.036)"/><path d="M832.68,475.432a12.56,12.56,0,0,1,.054,1.5,1.938,1.938,0,0,1,.056-.234,8.185,8.185,0,0,0,0-1.873,3.5,3.5,0,0,0-.19-1.342,15.474,15.474,0,0,1-.673-2.2,1.424,1.424,0,0,0-.381-.962,4.138,4.138,0,0,1-.625-1.62,1.577,1.577,0,0,1-.278-1.088,2.113,2.113,0,0,0-.461-1.316l-.924-2.733-.87-2.05-.49,1.191s0,.15-.017.388l.4-.967.87,2.046.924,2.733a2.114,2.114,0,0,1,.461,1.316,1.577,1.577,0,0,0,.278,1.088,4.123,4.123,0,0,0,.625,1.62,1.416,1.416,0,0,1,.379.962,15.764,15.764,0,0,0,.68,2.2A3.5,3.5,0,0,1,832.68,475.432Z" transform="translate(-821.706 -452.791)"/></g><path class="p" d="M862.292,193.243l-.2.924.013.412.008.3-1.134.109-.127-.219h0a9.715,9.715,0,0,0-.88-1.325c-.21-.163-.584-2.733-.139-2.581a1.16,1.16,0,0,1,.631.532S862.693,191.636,862.292,193.243Z" transform="translate(-761.35 -181.46)"/><path class="g" d="M869.711,219.071l-1.134.109-.127-.219h0a1.052,1.052,0,0,1,1.251-.192Z" transform="translate(-768.953 -205.649)"/><path class="c" d="M869.592,220.217l-1.5.322-.032-.207-.085-.558a1.074,1.074,0,0,1,1.448-.184l.075.283Z" transform="translate(-768.548 -206.294)"/><path class="p" d="M682.957,180.178l-1.6.8-.139-.28c-.151-.3-.378-.743-.44-.906-.094-.246-.76-.557-.76-.557-1.668-1.487.32-2.766.32-2.766,1.053-1.974,2.223.67,2.223.67a6.248,6.248,0,0,1,.049,1.487c-.115.093-.115.475-.115.475a5.631,5.631,0,0,1,.385.85C682.931,180.092,682.957,180.178,682.957,180.178Z" transform="translate(-606.134 -168.294)"/><path class="g" d="M694.526,208.479l-1.6.8-.139-.28c.225-.176,1.024-.777,1.287-.752a2.065,2.065,0,0,0,.378.009C694.5,208.393,694.526,208.479,694.526,208.479Z" transform="translate(-617.703 -196.595)"/><path class="c" d="M694.955,209.615l-1.794.823-.036-.358-.025-.249s1.039-.83,1.346-.8a1.753,1.753,0,0,0,.468,0l.021.3Z" transform="translate(-617.97 -197.281)"/><path class="p" d="M807.021,218.733s-7.821.822-6.359.379a1.865,1.865,0,0,0,1.506-1.579,3.559,3.559,0,0,0-.29-1.682,7.141,7.141,0,0,0-.695-1.316s5.976-3.062,4.782-.278a4.235,4.235,0,0,0-.339,1.319,3.482,3.482,0,0,0,.154,1.336A3.954,3.954,0,0,0,807.021,218.733Z" transform="translate(-710.428 -200.811)"/><path class="g" d="M810.318,214.226a4.235,4.235,0,0,0-.339,1.319,2.91,2.91,0,0,1-1.973.412,3.778,3.778,0,0,1-1.77-.136,7.132,7.132,0,0,0-.695-1.316S811.514,211.442,810.318,214.226Z" transform="translate(-714.785 -200.785)"/><ellipse class="p" cx="3.234" cy="3.012" rx="3.234" ry="3.012" transform="translate(89.881 9.343)"/><path class="g" d="M807.021,242.312s-7.821.822-6.359.379a1.865,1.865,0,0,0,1.506-1.579,4.475,4.475,0,0,1,1.668-.827,2.5,2.5,0,0,1,1.417-.022,2.086,2.086,0,0,1,.516.223A3.957,3.957,0,0,0,807.021,242.312Z" transform="translate(-710.428 -224.39)"/><path class="g" d="M870.117,223.174l-1.5.322-.032-.207a1.377,1.377,0,0,1,1.438-.458Z" transform="translate(-769.073 -209.251)"/><path class="g" d="M695.11,211.632l-1.794.823-.036-.358a13.59,13.59,0,0,1,1.807-.747Z" transform="translate(-618.125 -199.298)"/><path class="g" d="M795.58,387.594c-3.031.45-7.339,1.025-8.023.831a21.51,21.51,0,0,0-3.958-.093c.014-.735.028-1.223.028-1.223l11.74-1.139A8.526,8.526,0,0,0,795.58,387.594Z" transform="translate(-695.894 -351.319)"/><path class="l" d="M717.917,235.581s-9.974,1.594-11.044,1.294-6.566.025-6.566.025c-2.474,1.544-1.441-.734-1.441-.734a5.283,5.283,0,0,1,.082-2.151,12.314,12.314,0,0,0,.41-2.154s-.054-1.519.245-1.874a13.573,13.573,0,0,0,.653-2.885,20.917,20.917,0,0,0,.245-2.1,14.1,14.1,0,0,1,.081-1.443l.354-1.772c-2.039-.252-8.235-3.8-8.235-3.8-.3-1.189-2.608-3.973-2.608-3.973a2.767,2.767,0,0,0-.19-.683c-.163-.405,2.283-1.215,2.283-1.215s1.82,2.071,2.2,2.632a11.736,11.736,0,0,0,1.684,1.594,1.4,1.4,0,0,1,.6.072l.032.009h0a4.947,4.947,0,0,1,1.216.647,2.464,2.464,0,0,1,1.658.582s1.112-.153,1.3.025,1.141,0,1.141,0,.951-1.873,1.576-1.329,3.278.518,3.278.518a3.924,3.924,0,0,1,1.751-.906,2.515,2.515,0,0,1,1.417-.022,1.853,1.853,0,0,1,.556.259l1.613,1.468s.461-.558.407-.683.543-.228.543-.228.788-.228,1.087-.3.573.225.6.252a2.832,2.832,0,0,1-.139-1.113,1.265,1.265,0,0,0-.327-.906c.951-2.177,3.1-.355,3.1-.355a3.9,3.9,0,0,1,.028,1.645c-.217.456.217,1.417.163,1.671s.11.683.11,1.165a6.707,6.707,0,0,1-.435,1.8c-.157.405-1.468,1.316-1.468,1.316a5.4,5.4,0,0,1-.653,2.278c-.571.835-.213,3.69-.213,3.69a9.14,9.14,0,0,0,1.223,2.937C716.913,231.54,717.917,235.581,717.917,235.581Z" transform="translate(-615.21 -199.969)"/><path class="g" d="M778.509,254.317s-.3-.835-.571-.906a6.54,6.54,0,0,1-.788-.329l.175-.312s1.02.259,1.184.54A2,2,0,0,1,778.509,254.317Z" transform="translate(-690.34 -235.358)"/><path class="g" d="M732.294,246c-.054.259-2.474.48-2.474.48l1.223-1.141h0l.031.01h0A4.945,4.945,0,0,1,732.294,246Z" transform="translate(-649.587 -228.889)"/><ellipse class="q" cx="0.217" cy="0.202" rx="0.217" ry="0.202" transform="translate(75.491 13.436)"/><ellipse class="q" cx="0.217" cy="0.202" rx="0.217" ry="0.202" transform="translate(75.769 13.842)"/><ellipse class="q" cx="0.217" cy="0.202" rx="0.217" ry="0.202" transform="translate(76.042 14.216)"/><ellipse class="q" cx="0.217" cy="0.202" rx="0.217" ry="0.202" transform="translate(76.327 14.619)"/><ellipse class="q" cx="0.176" cy="0.164" rx="0.176" ry="0.164" transform="translate(101.984 14.635)"/><ellipse class="q" cx="0.176" cy="0.164" rx="0.176" ry="0.164" transform="translate(102.012 15.009)"/><ellipse class="q" cx="0.176" cy="0.164" rx="0.176" ry="0.164" transform="translate(102.035 15.382)"/><path class="g" d="M787,317.719c-.026-.03,6.1,7.175,10.856,3.012C797.86,320.732,790.346,321.681,787,317.719Z" transform="translate(-698.821 -291.901)"/><path class="g" d="M761.7,346.66s3.666.093,4.049,1.075v1.022a.749.749,0,0,1-.682,0c-.37-.186-2.586-1.235-3.367-.73Z" transform="translate(-677.037 -317.096)"/><path class="l" d="M762.19,346.66s3.506.089,3.873,1.026v.973a.716.716,0,0,1-.653,0c-.353-.176-2.472-1.176-3.22-.7Z" transform="translate(-677.459 -317.096)"/><path class="g" d="M776.1,289.38a10.832,10.832,0,0,0,1.422,2.271,9.3,9.3,0,0,0,2.223,2S776.161,289.849,776.1,289.38Z" transform="translate(-689.436 -267.23)"/><path class="g" d="M767.47,258.73s.611,2.459,2.187,3.294Z" transform="translate(-682.005 -240.546)"/><path class="g" d="M760.382,260.645c-.015-.045-.543,1.941,2.032,3.045C762.414,263.69,761.32,263.345,760.382,260.645Z" transform="translate(-675.855 -242.213)"/><path class="g" d="M875.9,247.9a18.319,18.319,0,0,1,1.627,1.139S876.678,247.847,875.9,247.9Z" transform="translate(-775.37 -231.116)"/><path class="n" d="M799.567,189.055a.461.461,0,0,0,.167.348.534.534,0,0,0,.389.121,6.919,6.919,0,0,0,2.918-.259,1.121,1.121,0,0,0,.445-.274,1.631,1.631,0,0,0,.258-.667,9.354,9.354,0,0,1,.6-1.279,4.015,4.015,0,0,0,.321-2.3,1.482,1.482,0,0,0-.247-.672c-.261-.348-.738-.489-1.084-.766s-.568-.7-.973-.906a2,2,0,0,0-1.22-.1,6.7,6.7,0,0,0-2.276.8,1.217,1.217,0,0,1-.762.241,1.013,1.013,0,0,1-.556-.4,2.633,2.633,0,0,0-.232,1.314.53.53,0,0,1-.007.2.6.6,0,0,1-.152.208c-.243.259-.395.679-.154.946.1.115.265.179.367.3.182.211.121.518.117.787a.384.384,0,0,0,.072.267.439.439,0,0,0,.4.089,1.162,1.162,0,0,1,.425-.038.71.71,0,0,1,.37.259A4.7,4.7,0,0,1,799.567,189.055Z" transform="translate(-707.326 -173.971)"/><g class="r" transform="translate(89.552 8.943)"><path d="M803.6,205.689a1.121,1.121,0,0,1-.445.274,7.017,7.017,0,0,1-2.918.259.727.727,0,0,1-.3-.063.626.626,0,0,1-.253-.408,4.56,4.56,0,0,0-.824-1.781.71.71,0,0,0-.37-.265,1.22,1.22,0,0,0-.425.038.44.44,0,0,1-.4-.088.384.384,0,0,1-.072-.267c0-.272.065-.576-.117-.787-.1-.118-.263-.181-.367-.3a.557.557,0,0,1-.063-.6.652.652,0,0,0-.046.806c.1.115.266.179.367.3.182.212.121.518.117.787a.381.381,0,0,0,.071.267.439.439,0,0,0,.4.089,1.162,1.162,0,0,1,.425-.038.711.711,0,0,1,.37.259,4.572,4.572,0,0,1,.824,1.782.636.636,0,0,0,.24.41.716.716,0,0,0,.306.062,6.9,6.9,0,0,0,2.918-.259,1.11,1.11,0,0,0,.445-.274.778.778,0,0,0,.139-.243A.062.062,0,0,1,803.6,205.689Z" transform="translate(-796.877 -199.84)"/><path d="M799.944,188.79a.438.438,0,0,0,.1-.153.527.527,0,0,0,0-.2,2.628,2.628,0,0,1,.151-1.09l-.018-.019a2.612,2.612,0,0,0-.232,1.312A.851.851,0,0,1,799.944,188.79Z" transform="translate(-799.51 -187.33)"/></g><path class="g" d="M812.08,248.436s4.04.5,4.4-.066" transform="translate(-720.416 -231.527)"/><path class="g" d="M868.59,236.85s2.246,0,2.739.787" transform="translate(-769.073 -221.498)"/><path class="l" d="M940.6,764.82a3.719,3.719,0,0,1-2.425.844c-.228,0-.543.04-.545.252a.342.342,0,0,0,.067.173,2.212,2.212,0,0,0,1.251.915,4.735,4.735,0,0,0,1.513.089l1.48-.071c.278-.014.556-.027.834-.06s.581-.085.871-.129a12.23,12.23,0,0,1,2.155-.093.688.688,0,0,0,.531-.129c.114-.129.056-.377.012-.571-.089-.4,0-.819-.082-1.22a2.213,2.213,0,0,0-1.511-1.5,3.392,3.392,0,0,0-2.479-.113A15.753,15.753,0,0,0,940.6,764.82Z" transform="translate(-828.519 -679.561)"/><path class="e" d="M951.167,575.411c.131.579.732,1.021.749,1.611a2.437,2.437,0,0,1-.609,1.276,8.235,8.235,0,0,0-.621,1.31,19.5,19.5,0,0,1-1.823,3.378,2.593,2.593,0,0,0-.657,1.672,2.4,2.4,0,0,0,.316.8l1.042,1.928a5.366,5.366,0,0,1,.532,1.218,11.193,11.193,0,0,1,.151,1.118c.164,1.183.76,2.374.407,3.52-.031.1-.139.217-.224.149a3.5,3.5,0,0,1,.595,1.882,2.448,2.448,0,0,0,.01,1.059,1.111,1.111,0,0,1,.163.417,2.472,2.472,0,0,1-.06.286c-.029.273.24.5.52.588s.583.08.866.159a5.343,5.343,0,0,1,1.39.888,3.109,3.109,0,0,0,1.6.485.428.428,0,0,0,.236-.044.347.347,0,0,0,.131-.267,1.435,1.435,0,0,0-.573-1.286.6.6,0,0,1-.213-.207.468.468,0,0,1-.019-.232,16.243,16.243,0,0,0-.061-3.184,4.513,4.513,0,0,1-.054-1.013,3.867,3.867,0,0,0,.088-.843,4.266,4.266,0,0,0-.278-.807,5.43,5.43,0,0,1-.139-1.5,12.348,12.348,0,0,0-.457-2.588,1.892,1.892,0,0,0-.432-.934c-.217-.211-.567-.413-.485-.694a.823.823,0,0,1,.2-.276,1.052,1.052,0,0,0,.247-.844.417.417,0,0,0,.468-.2,7,7,0,0,0,3.666-3.883A1.237,1.237,0,0,1,958,580a1.7,1.7,0,0,1,.671-.405,4.927,4.927,0,0,0,1.763-1.675,3.916,3.916,0,0,0,.681-1.214,3.716,3.716,0,0,0,.093-.876l.043-1.521a.77.77,0,0,0-.031-.3.747.747,0,0,0-.177-.241,3.214,3.214,0,0,0-1.732-.87c-.445-.074-.9-.06-1.349-.094a17.977,17.977,0,0,0-2.607-.259,4.178,4.178,0,0,0-3.239,2.111C951.893,575.057,951.654,575.4,951.167,575.411Z" transform="translate(-837.616 -513.741)"/><path class="c" d="M905.39,495.75a1.592,1.592,0,0,1-.1.692.53.53,0,0,1-.61.291c.071-.149-.117-.318-.292-.3a.537.537,0,0,0-.385.308,1.076,1.076,0,0,0-.111.7c.056.3.24.584.192.883-.039.248-.235.5-.131.726a1.2,1.2,0,0,0,.251.281.754.754,0,0,1-.09,1.087l2.629.049a1.639,1.639,0,0,0,.327,1.191,8.118,8.118,0,0,0,6.009,3.654.488.488,0,0,0-.253.344.464.464,0,0,0,.126.4.787.787,0,0,0,.845.045,6,6,0,0,0,.723-.5,2.347,2.347,0,0,1,1.486-.373c.329.03.649.129.98.145.973.048,1.807-.6,2.743-.871a6.669,6.669,0,0,0,2.029-.593.736.736,0,0,0,.378-.729,1.206,1.206,0,0,0-.278-.428,7.239,7.239,0,0,1-.76-1.327,8.011,8.011,0,0,0-1.9-2.371,16.954,16.954,0,0,0-1.884-1.33,3.269,3.269,0,0,0-.509-.286,5.937,5.937,0,0,1-.695-.259,3.541,3.541,0,0,1-.724-.758,10.9,10.9,0,0,0-1.964-1.272,4.69,4.69,0,0,0-1.326-.836c-.25-.071-.516-.076-.766-.146-.568-.16-.982-.63-1.54-.82a6.613,6.613,0,0,0-1.39-.164,3.4,3.4,0,0,1-1.452-.515,1.756,1.756,0,0,0-.463-.251c-.7-.2-.762,1.022-.834,1.446A13.051,13.051,0,0,0,905.39,495.75Z" transform="translate(-799.454 -443.967)"/><path class="j" d="M859.377,536.583c.118,1.193-.849,2.349-.567,3.518.06.249.175.485.217.738a2.714,2.714,0,0,1-.75,1.928l-3.641,4.976a3.189,3.189,0,0,1-.52.6c-.695.576-1.74.518-2.654.689a4.76,4.76,0,0,0-1.779.732.1.1,0,0,0-.022.149,1.574,1.574,0,0,0,1.322.579c.1.116,0,.29-.132.374-.195.129-.464.159-.5.469a.489.489,0,0,0,.067.311,1.041,1.041,0,0,0,.636.411,3.946,3.946,0,0,0,3.566-1.13c.944-.858,1.62-1.941,2.546-2.814.513-.484,1.1-.9,1.623-1.365a17.507,17.507,0,0,0,2.662-3.208,3.458,3.458,0,0,0,.577-1.092c.1-.4.053-.8.165-1.184a4.31,4.31,0,0,1,.873-1.328,4.193,4.193,0,0,0,.992-2.863,2.762,2.762,0,0,0-1.8-2.375,1.729,1.729,0,0,0-1.007-.057,2.366,2.366,0,0,0-1.026.761l-.695.743a1.724,1.724,0,0,0-.391.571.567.567,0,0,0,.139.634" transform="translate(-752.754 -480.703)"/><path class="c" d="M918.413,511.888a2.092,2.092,0,0,0-1.342.388,1.769,1.769,0,0,0-.339.495,4.69,4.69,0,0,0-.671,1.967,8.428,8.428,0,0,0,.243,1.644,5.869,5.869,0,0,1-.151,1.381,10.77,10.77,0,0,0,1.915-.686,6.585,6.585,0,0,1,1.121-.542,3.585,3.585,0,0,1,2.072.375c.029-.355-.257-.973-.227-1.329a1.4,1.4,0,0,1,.085-.44,2.659,2.659,0,0,1,.288-.426,1.648,1.648,0,0,0-.168-2.041,3.167,3.167,0,0,0-1.957-.777,9.084,9.084,0,0,0-1.366-.044" transform="translate(-809.945 -460.903)"/></g></svg>